<svg width="44" height="44" fill="none" xmlns="http://www.w3.org/2000/svg"><path d="M44 14.182a3.496 3.496 0 00-3.492-3.492H36.17V8.489a.644.644 0 00-.645-.645h-1.491V4.217a.644.644 0 00-.645-.645h-5.05v-.779a.645.645 0 00-.644-.645h-11.39a.645.645 0 00-.645.645v.78h-5.05a.644.644 0 00-.644.644v3.626H8.475a.645.645 0 00-.645.645v2.203H3.492A3.496 3.496 0 000 14.181v8.543c0 .356.289.644.645.644h.778v15.017a3.496 3.496 0 003.492 3.491h34.17a3.496 3.496 0 003.491-3.492V23.37h.78a.645.645 0 00.644-.644v-8.543zm-9.12-5.05v1.559H31.9V9.132h2.982zM16.95 3.438h10.1v1.558h-10.1V3.437zM9.12 9.131h2.98v1.559H9.12V9.132zm32.167 29.254a2.205 2.205 0 01-2.203 2.202H4.915a2.205 2.205 0 01-2.203-2.203V23.37h4.406v1.559h-.78a.645.645 0 00-.644.644v2.848c0 .355.29.644.645.644h.779v2.203c0 .244.138.467.357.576l2.847 1.424a.64.64 0 00.576 0l2.848-1.424a.644.644 0 00.356-.576v-2.203h.779a.644.644 0 00.644-.645v-2.847a.644.644 0 00-.644-.644h-.779V23.37h4.406v2.915c0 .356.289.645.644.645h5.695a.645.645 0 00.645-.645V23.37h4.405v1.559h-.779a.645.645 0 00-.644.644v2.848c0 .355.288.644.644.644h.78v2.203c0 .244.137.467.356.576l2.847 1.424a.64.64 0 00.577 0l2.847-1.424a.644.644 0 00.356-.576v-2.203h.78a.645.645 0 00.644-.645v-2.847a.645.645 0 00-.645-.644h-.779V23.37h4.406v15.017zm-32.88-15.66v-2.204h4.406v4.406H8.407v-2.202zm-1.423-3.493v-1.559h7.253v1.559H6.984zm7.253 6.984v1.558H6.984v-1.558h7.253zm-1.424 2.847v1.805L10.61 31.97l-2.203-1.1v-1.805h4.406zm8.542-5.695v.78a.644.644 0 101.29 0v-.78h1.558v2.27h-4.406v-2.27h1.558zm-1.558-1.289v-.846h4.406v.846h-4.406zm11.39.646v-2.204h4.405v4.406h-4.405v-2.202zm-1.424-3.493v-1.559h7.253v1.559h-7.253zm7.253 6.984v1.558h-7.253v-1.558h7.253zm-1.424 2.847v1.805L33.39 31.97l-2.202-1.101v-1.805h4.405zm6.343-6.984h-5.054v-1.558h.78a.645.645 0 00.644-.645v-2.202h.067a.645.645 0 100-1.29h-9.965a.644.644 0 100 1.29h.067v2.202c0 .356.288.645.644.645h.78v1.558h-4.406v-1.49a.644.644 0 00-.645-.645h-5.695a.644.644 0 00-.644.644v1.491h-4.406v-1.558h.78a.645.645 0 00.644-.645v-2.202h.067a.645.645 0 000-1.29H5.627a.645.645 0 100 1.29h.068v2.202c0 .356.288.645.644.645h.78v1.558h-5.83v-7.898c0-1.214.988-2.202 2.203-2.202h12.101a.645.645 0 000-1.29H13.39v-2.2a.645.645 0 00-.644-.645h-1.491V4.861h4.405v.78c0 .355.29.644.645.644h11.39a.644.644 0 00.644-.645v-.779h4.406v2.982h-1.49a.645.645 0 00-.645.645v2.203H18.175a.645.645 0 000 1.289h22.333c1.215 0 2.203.988 2.203 2.202v7.898h-.776z" fill="#fff"/><path d="M4.271 38.385c0 .356.288.645.645.645h34.168a.644.644 0 100-1.29H4.916a.644.644 0 00-.645.645z" fill="#fff"/></svg>